# xmcd
#
# Track frame offsets: 
#        150
#        13689
#        24618
#        37027
#        48422
#        61334
#        75380
#        87258
#        99919
#        109873
#        122074
#        138789
#        155484
#        175093
#        189488
#        207427
#        220613
#        234486
#        250571
#        262377
#
# Disc length: 3694 seconds
#
# Revision: 0
# Processed by: cddbd v1.5.2PL0 Copyright (c) Steve Scherf et al.
# Submitted via: ExactAudioCopyFreeDBPlugin 1.0
#
DISCID=0a0e6c14
DTITLE=Champion Jack Dupree - The Essential Recordings CD2
DYEAR=2018
DGENRE=Blues
TTITLE0=Walking The Blues
TTITLE1=Shake, Baby, Shake
TTITLE2=Shim Sham Shimmy
TTITLE3=Rub A Little Boogie
TTITLE4=Stumbling Block
TTITLE5=Drunk Again
TTITLE6=Big Leg Emma's
TTITLE7=Overhead
TTITLE8=Me And My Mule
TTITLE9=Dirty Woman
TTITLE10=T. B. Blues
TTITLE11=Can't Kick The Habit
TTITLE12=Evil Woman
TTITLE13=Nasty Boogie
TTITLE14=Bad Blood
TTITLE15=Don't Leave Me, Mary
TTITLE16=Rampart Street Special
TTITLE17=Dennis Rag
TTITLE18=Sharp Harp
TTITLE19=Bad Luck Bound To Change
EXTD=
EXTT0=
EXTT1=
EXTT2=
EXTT3=
EXTT4=
EXTT5=
EXTT6=
EXTT7=
EXTT8=
EXTT9=
EXTT10=
EXTT11=
EXTT12=
EXTT13=
EXTT14=
EXTT15=
EXTT16=
EXTT17=
EXTT18=
EXTT19=
PLAYORDER=
